# xmcd
#
# Track frame offsets:
#	150
#	12496
#	21109
#	35190
#	50010
#	65140
#	75851
#	87224
#	104525
#	120035
#	131282
#	140908
#	157639
#	167220
#	181160
#	194390
#	213650
#	223762
#	234477
#	243277
#	255284
#	264813
#	276996
#	289929
#	306165
#	316800
#	333050
#
# Disc length: 4612 seconds
#
# Revision: 1
# Processed by: cddbd v1.5.2PL0 Copyright (c) Steve Scherf et al.
# Submitted via: audiograbber 1.83.01
#
DISCID=7912021b
DTITLE=Marko Cermak - Posledni romantik_CD2
DYEAR=2010
DGENRE=Country
TTITLE0=Bluegrasovy part c.1
TTITLE1=A tak ja v tom zas litam
TTITLE2=Zatoka
TTITLE3=Narek divky
TTITLE4=Houston
TTITLE5=Vuz do Tennessee
TTITLE6=Jesse James
TTITLE7=Michigan
TTITLE8=Cervena reka
TTITLE9=Blues Folsomske veznice
TTITLE10=Ja v posledni dobe
TTITLE11=Bila
TTITLE12=Sest dni na silnici
TTITLE13=Motlidba
TTITLE14=Vlak ma zelenou
TTITLE15=Marna cesta
TTITLE16=Tak ja du dal
TTITLE17=Uz te vlak privazi
TTITLE18=Step hori
TTITLE19=Tak se toulam
TTITLE20=Banjo ma pet strun
TTITLE21=Rozmarna kraska
TTITLE22=John Henry
TTITLE23=Svetla dostavniku
TTITLE24=Vazoun Bill a bicykl
TTITLE25=Uhliky
TTITLE26=Louise
EXTD=
EXTT0=
EXTT1=
EXTT2=
EXTT3=
EXTT4=
EXTT5=
EXTT6=
EXTT7=
EXTT8=
EXTT9=
EXTT10=
EXTT11=
EXTT12=
EXTT13=
EXTT14=
EXTT15=
EXTT16=
EXTT17=
EXTT18=
EXTT19=
EXTT20=
EXTT21=
EXTT22=
EXTT23=
EXTT24=
EXTT25=
EXTT26=
PLAYORDER=
